<svg width="80" height="80" viewBox="0 0 80 80" fill="none" xmlns="http://www.w3.org/2000/svg">
<path d="M63.5938 0H16.4062C7.35984 0 0 7.35984 0 16.4062V63.5938C0 72.6402 7.35984 80 16.4062 80H63.5938C72.6402 80 80 72.6402 80 63.5938V16.4062C80 7.35984 72.6402 0 63.5938 0ZM75.3125 63.5938C75.3125 70.0555 70.0555 75.3125 63.5938 75.3125H16.4062C9.94453 75.3125 4.6875 70.0555 4.6875 63.5938V16.4062C4.6875 9.94453 9.94453 4.6875 16.4062 4.6875H63.5938C70.0555 4.6875 75.3125 9.94453 75.3125 16.4062V63.5938Z" fill="white"/>
<path d="M47.7572 19.3019C47.487 18.2941 46.8408 17.4516 45.9372 16.9301C44.0722 15.8532 41.6784 16.4943 40.6012 18.3599L40 19.4011L39.3987 18.3597C38.3217 16.4946 35.9281 15.8532 34.0628 16.9299H34.0627C32.1973 18.0069 31.5561 20.4005 32.633 22.266L35.4894 27.2135L24.9497 45.469H17.2656C15.1117 45.469 13.3594 47.2213 13.3594 49.3752C13.3594 51.5291 15.1117 53.2815 17.2656 53.2815H46.9312L42.4206 45.469H33.9708L47.3669 22.2661C47.8886 21.3626 48.0273 20.3097 47.7572 19.3019Z" fill="white"/>
<path d="M62.7344 45.4687H55.0504L46.3149 30.3384L41.8044 38.1509L55.3676 61.6427C55.8893 62.5465 56.7315 63.1929 57.7396 63.463C58.0762 63.5532 58.4176 63.5979 58.7569 63.5979C59.4338 63.5979 60.1019 63.4204 60.704 63.0727C62.5693 61.9957 63.2105 59.602 62.1335 57.7368L59.5608 53.2812H62.7344C64.8883 53.2812 66.6407 51.5288 66.6407 49.3749C66.6407 47.221 64.8883 45.4687 62.7344 45.4687Z" fill="white"/>
<path d="M18.635 56.4062L17.8668 57.7369C16.7899 59.6022 17.4313 61.9959 19.2966 63.0728C19.9102 63.427 20.5808 63.5955 21.2432 63.5953C22.5941 63.5953 23.9099 62.8947 24.6327 61.643L27.6561 56.4062H18.635Z" fill="white"/>
</svg>
