<svg width="250" height="52" viewBox="0 0 250 52" fill="none" xmlns="http://www.w3.org/2000/svg">
<path d="M9.26879 11.0753V23.3151H27.8064V31.916H9.26879V48.787H0V2.47438H30.2666V11.0753H9.26879ZM49.7769 49.3163C46.5347 49.3163 43.6167 48.5445 41.023 47.0007C38.4674 45.4128 36.4649 43.2295 35.0154 40.4508C33.566 37.672 32.8413 34.5183 32.8413 30.9898C32.8413 27.4612 33.566 24.3075 35.0154 21.5287C36.4649 18.75 38.4674 16.5887 41.023 15.045C43.6167 13.4571 46.5347 12.6632 49.7769 12.6632C53.019 12.6632 55.9179 13.4571 58.4735 15.045C61.0291 16.5887 63.0316 18.75 64.4811 21.5287C65.9305 24.3075 66.6552 27.4612 66.6552 30.9898C66.6552 34.5183 65.9305 37.672 64.4811 40.4508C63.0316 43.2295 61.0291 45.4128 58.4735 47.0007C55.9179 48.5445 53.019 49.3163 49.7769 49.3163ZM49.7769 40.8477C52.0654 40.8477 53.9345 39.9656 55.3839 38.2013C56.8715 36.3929 57.6153 33.989 57.6153 30.9898C57.6153 27.9905 56.8715 25.6087 55.3839 23.8444C53.9345 22.036 52.0654 21.1318 49.7769 21.1318C47.4883 21.1318 45.6002 22.036 44.1126 23.8444C42.625 25.6087 41.8812 27.9905 41.8812 30.9898C41.8812 33.989 42.625 36.3929 44.1126 38.2013C45.6002 39.9656 47.4883 40.8477 49.7769 40.8477Z" fill="#086972"/>
<path d="M85.8412 15.7066H76.3057V48.7871H85.8412V15.7066Z" fill="#086972"/>
<path d="M171.015 13.5453V49.4046H160.659V45.5672C159.515 47.0228 158.142 48.1254 156.54 48.8753C154.938 49.6251 153.24 50 151.447 50C147.442 50 144.238 48.6327 141.835 45.898C139.471 43.1634 138.288 39.0614 138.288 33.5921V13.5453H149.159V31.5411C149.159 34.2316 149.598 36.1944 150.475 37.4294C151.352 38.6644 152.63 39.2819 154.308 39.2819C156.025 39.2819 157.417 38.5983 158.485 37.2309C159.591 35.8195 160.144 33.6803 160.144 30.8133V13.5453H171.015ZM198.214 12.9499C202.066 12.9499 205.156 14.2731 207.483 16.9195C209.848 19.566 211.03 23.5577 211.03 28.8947V49.4046H200.159V30.9456C200.159 26.0497 198.462 23.6018 195.067 23.6018C193.198 23.6018 191.691 24.3075 190.547 25.7189C189.441 27.1304 188.888 29.2475 188.888 32.0704V49.4046H178.017V13.5453H188.373V17.4488C189.594 15.9933 191.043 14.8906 192.721 14.1408C194.4 13.3468 196.23 12.9499 198.214 12.9499ZM250 31.5411C250 31.6293 249.943 32.6658 249.828 34.6507H227.285C227.742 36.5032 228.621 37.9367 229.918 38.9511C231.253 39.9215 232.912 40.4067 234.895 40.4067C236.383 40.4067 237.661 40.1641 238.729 39.6789C239.835 39.1937 240.941 38.3998 242.047 37.2971L247.769 44.1778C244.755 48.0593 240.35 50 234.552 50C230.928 50 227.742 49.2061 224.996 47.6182C222.25 46.0303 220.114 43.825 218.588 41.0021C217.101 38.1792 216.357 34.9815 216.357 31.4088C216.357 27.8802 217.081 24.7265 218.531 21.9478C220.018 19.1249 222.059 16.9195 224.653 15.3317C227.247 13.7438 230.166 12.9499 233.408 12.9499C236.497 12.9499 239.301 13.6997 241.818 15.1993C244.336 16.6549 246.319 18.7941 247.769 21.6169C249.256 24.3957 250 27.7038 250 31.5411ZM233.465 21.8816C231.787 21.8816 230.375 22.4329 229.231 23.5356C228.125 24.6383 227.418 26.1379 227.113 28.0346H239.816C239.511 26.1379 238.786 24.6383 237.642 23.5356C236.535 22.4329 235.143 21.8816 233.465 21.8816Z" fill="#086972"/>
<path d="M92.9932 26.7334C95.6264 26.7334 97.761 24.265 97.761 21.22C97.761 18.1751 95.6264 15.7066 92.9932 15.7066C90.36 15.7066 88.2254 18.1751 88.2254 21.22C88.2254 24.265 90.36 26.7334 92.9932 26.7334Z" fill="#17B978"/>
<path d="M128.753 26.7334C131.386 26.7334 133.52 24.265 133.52 21.22C133.52 18.1751 131.386 15.7066 128.753 15.7066C126.119 15.7066 123.985 18.1751 123.985 21.22C123.985 24.265 126.119 26.7334 128.753 26.7334Z" fill="#17B978"/>
<path d="M111.567 0V35.8372C111.244 44.9434 113.339 46.9313 121.103 46.864" stroke="#086972" stroke-width="10"/>
<path d="M102 19.2969H111.536" stroke="#086972" stroke-width="10"/>
</svg>
