<svg width="80" height="80" viewBox="0 0 80 80" fill="none" xmlns="http://www.w3.org/2000/svg">
<g clip-path="url(#clip0)">
<path d="M5.93941 2.94604C4.99029 4.19788 4.46191 5.73779 4.46191 7.38575V72.6128C4.46191 74.1436 4.91935 75.5816 5.74555 76.7828L41.3057 39.7637L5.93941 2.94604Z" fill="white"/>
<path d="M44.5615 36.3737L56.0977 24.3644L15.5467 0.998339C13.7867 -0.0160655 11.7674 -0.256544 9.88318 0.272021L44.5615 36.3737Z" fill="white"/>
<path d="M44.5616 43.1531L9.53284 79.6192C10.2881 79.8725 11.0697 80 11.8518 80C13.1208 80 14.3903 79.6668 15.5468 79.0003L56.3895 55.4657L44.5616 43.1531Z" fill="white"/>
<path d="M72.1453 33.6122L60.2899 26.7805L47.818 39.7633L60.581 53.0507L72.1453 46.3869C74.4594 45.0538 75.8409 42.6655 75.8409 39.9995C75.8409 37.3329 74.4594 34.9452 72.1453 33.6122Z" fill="white"/>
</g>
<defs>
<clipPath id="clip0">
<rect width="80" height="80" fill="white"/>
</clipPath>
</defs>
</svg>
