<svg width="206" height="34" viewBox="0 0 206 34" fill="none" xmlns="http://www.w3.org/2000/svg">
<path d="M16.55 24.932L25.755 30.617L23.312 19.901L31.445 12.691L20.736 11.761L16.55 1.655L12.364 11.761L1.655 12.691L9.788 19.901L7.345 30.617L16.55 24.932Z" fill="#FFC400"/>
<path d="M59.65 24.932L68.855 30.617L66.412 19.901L74.545 12.691L63.836 11.761L59.65 1.655L55.464 11.761L44.755 12.691L52.888 19.901L50.445 30.617L59.65 24.932Z" fill="#FFC400"/>
<path d="M102.75 24.932L111.955 30.617L109.512 19.901L117.645 12.691L106.936 11.761L102.75 1.655L98.564 11.761L87.855 12.691L95.988 19.901L93.545 30.617L102.75 24.932Z" fill="#FFC400"/>
<path d="M145.85 24.932L155.055 30.617L152.612 19.901L160.745 12.691L150.036 11.761L145.85 1.655L141.664 11.761L130.955 12.691L139.088 19.901L136.645 30.617L145.85 24.932Z" fill="#FFC400"/>
<path d="M202.342 12.743L192.425 11.888L188.55 2.758L184.675 11.902L174.759 12.743L182.289 19.266L180.025 28.962L188.548 23.818L197.071 28.962L194.823 19.262L202.342 12.743ZM188.55 21.243L183.364 24.374L184.743 18.474L180.165 14.495L186.206 13.971L188.551 8.413L190.909 13.985L196.95 14.509L192.371 18.481L193.75 24.381L188.55 21.243Z" fill="#FFC400"/>
</svg>
