<svg width="50" height="50" viewBox="0 0 50 50" fill="none" xmlns="http://www.w3.org/2000/svg">
<path d="M25.7812 30.3578C27.125 30.0086 28.125 28.7961 28.125 27.3438C28.125 25.6203 26.7234 24.2188 25 24.2188C24.1383 24.2188 23.4375 23.518 23.4375 22.6562C23.4375 21.7945 24.1383 21.0938 25 21.0938C25.8617 21.0938 26.5625 21.7945 26.5625 22.6562H28.125C28.125 21.2039 27.125 19.9914 25.7812 19.6422V17.9688H24.2188V19.6422C22.875 19.9914 21.875 21.2039 21.875 22.6562C21.875 24.3797 23.2766 25.7812 25 25.7812C25.8617 25.7812 26.5625 26.482 26.5625 27.3438C26.5625 28.2055 25.8617 28.9062 25 28.9062C24.1383 28.9062 23.4375 28.2055 23.4375 27.3438H21.875C21.875 28.7961 22.875 30.0086 24.2188 30.3578V32.0312H25.7812V30.3578Z" fill="white"/>
<path d="M25 14.8438C19.4 14.8438 14.8438 19.4 14.8438 25H16.4062C16.4062 20.2617 20.2617 16.4062 25 16.4062V14.8438Z" fill="white"/>
<path d="M33.5938 25C33.5938 29.7383 29.7383 33.5938 25 33.5938V35.1562C30.6 35.1562 35.1562 30.6 35.1562 25H33.5938Z" fill="white"/>
<path d="M16.875 6.37817C14.4257 7.44771 12.239 8.97036 10.3757 10.9032L11.5 11.9883C13.221 10.204 15.2398 8.79771 17.5007 7.80942L16.875 6.37817Z" fill="white"/>
<path d="M20.1258 5.27661C19.5758 5.41177 19.029 5.57114 18.4993 5.75005L19.0008 7.23052C19.4883 7.06568 19.993 6.9188 20.4993 6.79302L20.1258 5.27661Z" fill="white"/>
<path d="M23.3766 4.75146C22.843 4.79365 22.2961 4.85928 21.7516 4.946L21.9985 6.48897C22.5016 6.40772 23.0063 6.34756 23.4985 6.31006L23.3766 4.75146Z" fill="white"/>
<path d="M25 2.34375C31.0523 2.34375 36.7414 4.70078 41.0203 8.97969C41.3133 9.27266 41.832 9.27266 42.125 8.97969L43.75 7.35469V13.2812H37.8234L39.3633 11.7414C39.6687 11.4359 39.6687 10.9422 39.3633 10.6367C35.5266 6.8 30.4258 4.6875 25 4.6875V6.25C29.7469 6.25 34.225 8.00234 37.6945 11.2008L35.3852 13.5102C35.1617 13.7336 35.0945 14.0695 35.2156 14.3617C35.3367 14.6539 35.6219 14.8438 35.9375 14.8438H44.5312C44.9625 14.8438 45.3125 14.4945 45.3125 14.0625V5.46875C45.3125 5.15312 45.1219 4.86719 44.8305 4.74688C44.5367 4.62422 44.2023 4.69219 43.9789 4.91641L41.5641 7.33125C37.0602 3.10156 31.2086 0.78125 25 0.78125C11.6461 0.78125 0.78125 11.6453 0.78125 25H2.34375C2.34375 12.5078 12.507 2.34375 25 2.34375Z" fill="white"/>
<path d="M39.625 39.0966L38.5008 38.0115C36.7797 39.7958 34.7609 41.2021 32.5 42.1904L33.1258 43.6216C35.575 42.5521 37.7609 41.0294 39.625 39.0966Z" fill="white"/>
<path d="M29.8742 44.7234C30.4242 44.5883 30.971 44.4289 31.5007 44.25L30.9992 42.7695C30.5117 42.9344 30.007 43.0813 29.5007 43.207L29.8742 44.7234Z" fill="white"/>
<path d="M26.6235 45.2487C27.1571 45.2065 27.7039 45.1409 28.2485 45.0542L28.0016 43.5112C27.4985 43.5925 26.9938 43.6526 26.5016 43.6901L26.6235 45.2487Z" fill="white"/>
<path d="M47.6562 25C47.6562 37.4922 37.493 47.6562 25 47.6562C18.9477 47.6562 13.2586 45.2992 8.97969 41.0203C8.68672 40.7273 8.16797 40.7273 7.875 41.0203L6.25 42.6453V36.7188H12.1766L10.6367 38.2586C10.3312 38.5641 10.3312 39.0578 10.6367 39.3633C14.4734 43.2 19.5742 45.3125 25 45.3125V43.75C20.2531 43.75 15.775 41.9977 12.3055 38.7992L14.6148 36.4898C14.8383 36.2664 14.9055 35.9305 14.7844 35.6383C14.6633 35.3461 14.3781 35.1562 14.0625 35.1562H5.46875C5.0375 35.1562 4.6875 35.5055 4.6875 35.9375V44.5312C4.6875 44.8469 4.87813 45.1328 5.16953 45.2531C5.46172 45.375 5.79766 45.307 6.02109 45.0836L8.43594 42.6688C12.9398 46.8984 18.7914 49.2188 25 49.2188C38.3539 49.2188 49.2188 38.3547 49.2188 25H47.6562Z" fill="white"/>
<path d="M38.2812 25C38.2812 17.6766 32.3234 11.7188 25 11.7188C17.6766 11.7188 11.7188 17.6766 11.7188 25C11.7188 32.3234 17.6766 38.2812 25 38.2812C32.3234 38.2812 38.2812 32.3234 38.2812 25ZM25 36.7188C18.5383 36.7188 13.2812 31.4617 13.2812 25C13.2812 18.5383 18.5383 13.2812 25 13.2812C31.4617 13.2812 36.7188 18.5383 36.7188 25C36.7188 31.4617 31.4617 36.7188 25 36.7188Z" fill="white"/>
</svg>
