<svg width="70" height="50" viewBox="0 0 70 50" fill="none" xmlns="http://www.w3.org/2000/svg">
<path d="M17.1324 31.8184C21.9978 31.8184 25.9559 35.8964 25.9559 40.9092C25.9559 45.922 21.9978 50.0001 17.1324 50.0001C12.2661 50.0001 8.30882 45.922 8.30882 40.9092C8.30882 35.8964 12.267 31.8184 17.1324 31.8184ZM17.1324 45.4547C19.5654 45.4547 21.5442 43.416 21.5442 40.9092C21.5442 38.4025 19.5654 36.3638 17.1324 36.3638C14.6993 36.3638 12.7206 38.4025 12.7206 40.9092C12.7206 43.4161 14.6993 45.4547 17.1324 45.4547Z" fill="white"/>
<path d="M47.2794 31.8184C52.1448 31.8184 56.103 35.8964 56.103 40.9092C56.103 45.922 52.1448 50.0001 47.2794 50.0001C42.414 50.0001 38.4558 45.922 38.4558 40.9092C38.4558 35.8964 42.414 31.8184 47.2794 31.8184ZM47.2794 45.4547C49.7124 45.4547 51.6912 43.416 51.6912 40.9092C51.6912 38.4025 49.7124 36.3638 47.2794 36.3638C44.847 36.3638 42.8676 38.4025 42.8676 40.9092C42.8676 43.4161 44.8464 45.4547 47.2794 45.4547Z" fill="white"/>
<path d="M11.1904 5.79696C11.5655 5.02955 12.3279 4.54541 13.1618 4.54541H24.7794V9.09085H14.5221L8.51553 21.3998L4.57283 19.3573L11.1904 5.79696Z" fill="white"/>
<path d="M23.75 38.7114H40.4411V43.2569H23.75V38.7114Z" fill="white"/>
<path d="M53.8972 38.7114H61.5441C62.7625 38.7114 63.7499 39.7289 63.7499 40.9841C63.7499 42.2394 62.7624 43.2567 61.5441 43.2567H53.897C52.6786 43.2567 51.6912 42.2393 51.6912 40.9841C51.6912 39.7287 52.6787 38.7114 53.8972 38.7114Z" fill="white"/>
<path d="M0.463223 24.818L4.80213 19.0604C5.21899 18.5059 5.86238 18.1816 6.54406 18.1816H22.5735V2.27265C22.5735 1.0173 23.561 0 24.7793 0H61.5441C62.7625 0 63.7499 1.01744 63.7499 2.27265C63.7499 3.52786 62.7624 4.54529 61.5441 4.54529H26.9853V20.4542C26.9853 21.7096 25.9978 22.7269 24.7795 22.7269H7.62428L4.4118 26.9905V38.7116H10.5148C11.7332 38.7116 12.7206 39.7291 12.7206 40.9843C12.7206 42.2396 11.7331 43.2569 10.5148 43.2569H2.20598C0.987541 43.2569 0.000156403 42.2395 1.90735e-05 40.9843V26.2119C1.90735e-05 25.7074 0.163261 25.2165 0.463223 24.818Z" fill="white"/>
<path d="M54.0441 27.1968H64.1912C65.4097 27.1968 66.397 28.2142 66.397 29.4694C66.397 30.7248 65.4095 31.7421 64.1912 31.7421H54.0442C52.8258 31.7421 51.8384 30.7246 51.8384 29.4694C51.8383 28.2142 52.8258 27.1968 54.0441 27.1968Z" fill="white"/>
<path d="M48.9706 18.2576H67.7942C69.0125 18.2576 70 19.275 70 20.5304C70 21.7857 69.0125 22.803 67.7942 22.803H48.9706C47.7522 22.803 46.7648 21.7856 46.7648 20.5304C46.7648 19.2751 47.7522 18.2576 48.9706 18.2576Z" fill="white"/>
<path d="M45.3677 9.31836H64.1912C65.4097 9.31836 66.397 10.3358 66.397 11.591C66.397 12.8464 65.4095 13.8637 64.1912 13.8637H45.3677C44.1492 13.8637 43.1618 12.8462 43.1618 11.591C43.1617 10.3358 44.1492 9.31836 45.3677 9.31836Z" fill="white"/>
</svg>
