<svg width="30" height="30" viewBox="0 0 30 30" fill="none" xmlns="http://www.w3.org/2000/svg">
<g clip-path="url(#clip0)">
<path d="M25.9998 13.8609L19.3823 13.2859C16.4637 13.032 13.5285 13.032 10.6099 13.2859L3.99245 13.8609C1.72728 14.0476 -0.0123039 15.9468 -5.7814e-05 18.2196V24.1571C-0.0120109 26.4326 1.73179 28.3328 3.99995 28.5158L10.6174 29.0908C12.0724 29.2158 13.5374 29.2808 15.0037 29.2808C16.4699 29.2808 17.9349 29.2183 19.3899 29.0908L26.0074 28.5158C28.2731 28.329 30.0128 26.4291 29.9999 24.1558V18.2184C30.0111 15.9434 28.2675 14.0439 25.9998 13.8609Z" fill="white"/>
<path d="M5.62502 25.7192C5.27984 25.7192 5 25.4394 5 25.0942V17.5943C5 17.2491 5.27984 16.9692 5.62502 16.9692C5.97019 16.9692 6.25003 17.2491 6.25003 17.5943V25.0942C6.25003 25.4395 5.97019 25.7192 5.62502 25.7192Z" fill="black"/>
<path d="M8.12503 18.2193H3.12502C2.77984 18.2193 2.5 17.9394 2.5 17.5943C2.5 17.2491 2.77984 16.9692 3.12502 16.9692H8.12497C8.47014 16.9692 8.74999 17.2491 8.74999 17.5943C8.74999 17.9394 8.4702 18.2193 8.12503 18.2193Z" fill="black"/>
<path d="M5.62509 6.96962C5.42839 6.96962 5.24312 6.87699 5.12511 6.71961L1.37513 1.71965C1.16794 1.44355 1.22384 1.0518 1.49993 0.84461C1.77602 0.637423 2.16778 0.693321 2.37497 0.969414C2.37503 0.969473 2.37508 0.969531 2.37514 0.969648L5.62515 5.30211L8.87516 0.969648C9.08228 0.693497 9.47398 0.63754 9.75013 0.844668C10.0263 1.0518 10.0822 1.44355 9.87511 1.71965L6.12513 6.71961C6.00706 6.87705 5.82185 6.96962 5.62509 6.96962Z" fill="white"/>
<path d="M5.62508 11.9697C5.2799 11.9697 5.00006 11.6899 5.00006 11.3447V6.34474C5.00006 5.99957 5.2799 5.71973 5.62508 5.71973C5.97025 5.71973 6.25009 5.99957 6.25009 6.34474V11.3447C6.25009 11.6899 5.97025 11.9697 5.62508 11.9697Z" fill="white"/>
<path d="M12.5 11.9697C10.429 11.9697 8.75006 10.2907 8.75006 8.21969V6.96971C8.75006 4.89867 10.429 3.21973 12.5 3.21973C14.5711 3.21973 16.25 4.89867 16.25 6.96971V8.21969C16.25 10.2907 14.5711 11.9697 12.5 11.9697ZM12.5 4.4697C11.1193 4.4697 10 5.58901 10 6.96971V8.21969C10 9.60038 11.1193 10.7197 12.5 10.7197C13.8807 10.7197 15 9.60038 15 8.21969V6.96971C15 5.58896 13.8808 4.4697 12.5 4.4697Z" fill="white"/>
<path d="M21.25 11.9697C19.179 11.9697 17.5001 10.2908 17.5001 8.21975V3.84474C17.5001 3.49957 17.7799 3.21973 18.1251 3.21973C18.4703 3.21973 18.7501 3.49957 18.7501 3.84474V8.21975C18.7501 9.60044 19.8694 10.7198 21.2501 10.7198C22.6308 10.7198 23.7501 9.60044 23.7501 8.21975V3.84474C23.7501 3.49957 24.03 3.21973 24.3751 3.21973C24.7203 3.21973 25.0002 3.49957 25.0002 3.84474V8.21975C25 10.2908 23.3211 11.9697 21.25 11.9697Z" fill="white"/>
<path d="M26.875 11.9697C23.7501 11.9697 23.7501 8.67726 23.7501 7.59474C23.7501 7.24957 24.0299 6.96973 24.3751 6.96973C24.7203 6.96973 25.0001 7.24957 25.0001 7.59474C25.0001 10.1885 25.7501 10.7197 26.8751 10.7197C27.2203 10.7197 27.5001 10.9996 27.5001 11.3447C27.5001 11.6899 27.2202 11.9697 26.875 11.9697Z" fill="white"/>
<path d="M11.25 25.7192C9.86931 25.7192 8.75 24.6 8.75 23.2192V20.0943C8.75 19.7491 9.02984 19.4692 9.37502 19.4692C9.72019 19.4692 10 19.7491 10 20.0943V23.2192C10 23.9096 10.5597 24.4692 11.25 24.4692C11.9404 24.4692 12.5 23.9096 12.5 23.2192V20.0943C12.5 19.7491 12.7798 19.4692 13.125 19.4692C13.4702 19.4692 13.75 19.7491 13.75 20.0943V23.2192C13.75 24.6 12.6307 25.7192 11.25 25.7192Z" fill="black"/>
<path d="M15.625 25.7192C15.2798 25.7192 15 25.4394 15 25.0942V17.5943C15 17.2491 15.2798 16.9692 15.625 16.9692C15.9702 16.9692 16.25 17.2491 16.25 17.5943V25.0942C16.25 25.4395 15.9702 25.7192 15.625 25.7192Z" fill="black"/>
<path d="M26.25 25.7192H25C23.6193 25.7192 22.5 24.6 22.5 23.2192V21.9692C22.5 20.5886 23.6193 19.4692 25 19.4692C26.3807 19.4692 27.5 20.5886 27.5 21.9692V22.5943C27.5 22.9394 27.2202 23.2193 26.875 23.2193H23.75C23.75 23.9096 24.3097 24.4693 25 24.4693H26.25C26.5952 24.4693 26.875 24.7491 26.875 25.0943C26.875 25.4394 26.5952 25.7192 26.25 25.7192ZM23.75 21.9692H26.25C26.25 21.2789 25.6904 20.7193 25 20.7193C24.3097 20.7193 23.75 21.2789 23.75 21.9692Z" fill="black"/>
<path d="M18.125 25.7192C16.3991 25.7192 15 24.3201 15 22.5942C15 20.8683 16.3991 19.4692 18.125 19.4692C19.8508 19.4692 21.2499 20.8683 21.2499 22.5942C21.2499 24.3201 19.8509 25.7192 18.125 25.7192ZM18.125 20.7192C17.0894 20.7192 16.25 21.5587 16.25 22.5942C16.25 23.6297 17.0894 24.4692 18.125 24.4692C19.1605 24.4692 20 23.6297 20 22.5942C20 21.5587 19.1606 20.7192 18.125 20.7192Z" fill="black"/>
</g>
<defs>
<clipPath id="clip0">
<rect width="30" height="30" fill="white"/>
</clipPath>
</defs>
</svg>
